<svg id="visual" viewBox="0 0 960 540" width="960" height="540" xmlns="http://www.w3.org/2000/svg" xmlns:xlink="http://www.w3.org/1999/xlink" version="1.1"><rect x="0" y="0" width="960" height="540" fill="#ffffff"></rect><path d="M0 385L20 373.8C40 362.7 80 340.3 120 340C160 339.7 200 361.3 240 368C280 374.7 320 366.3 360 360.3C400 354.3 440 350.7 480 354.3C520 358 560 369 600 373C640 377 680 374 720 373.8C760 373.7 800 376.3 840 367.7C880 359 920 339 940 329L960 319L960 541L940 541C920 541 880 541 840 541C800 541 760 541 720 541C680 541 640 541 600 541C560 541 520 541 480 541C440 541 400 541 360 541C320 541 280 541 240 541C200 541 160 541 120 541C80 541 40 541 20 541L0 541Z" fill="#ffffff"></path><path d="M0 420L20 415.8C40 411.7 80 403.3 120 404.7C160 406 200 417 240 414.3C280 411.7 320 395.3 360 390.3C400 385.3 440 391.7 480 389.7C520 387.7 560 377.3 600 371.7C640 366 680 365 720 370C760 375 800 386 840 386.2C880 386.3 920 375.7 940 370.3L960 365L960 541L940 541C920 541 880 541 840 541C800 541 760 541 720 541C680 541 640 541 600 541C560 541 520 541 480 541C440 541 400 541 360 541C320 541 280 541 240 541C200 541 160 541 120 541C80 541 40 541 20 541L0 541Z" fill="#c6d7fb"></path><path d="M0 422L20 426.7C40 431.3 80 440.7 120 446.3C160 452 200 454 240 450C280 446 320 436 360 432.5C400 429 440 432 480 435.7C520 439.3 560 443.7 600 445.8C640 448 680 448 720 443.3C760 438.7 800 429.3 840 422.8C880 416.3 920 412.7 940 410.8L960 409L960 541L940 541C920 541 880 541 840 541C800 541 760 541 720 541C680 541 640 541 600 541C560 541 520 541 480 541C440 541 400 541 360 541C320 541 280 541 240 541C200 541 160 541 120 541C80 541 40 541 20 541L0 541Z" fill="#86b0f5"></path><path d="M0 498L20 495.2C40 492.3 80 486.7 120 480.2C160 473.7 200 466.3 240 464.5C280 462.7 320 466.3 360 473.5C400 480.7 440 491.3 480 492.5C520 493.7 560 485.3 600 479.5C640 473.7 680 470.3 720 473C760 475.7 800 484.3 840 489.8C880 495.3 920 497.7 940 498.8L960 500L960 541L940 541C920 541 880 541 840 541C800 541 760 541 720 541C680 541 640 541 600 541C560 541 520 541 480 541C440 541 400 541 360 541C320 541 280 541 240 541C200 541 160 541 120 541C80 541 40 541 20 541L0 541Z" fill="#118bee"></path></svg>
